<svg width="389" height="389" viewBox="0 0 389 389" fill="none" xmlns="http://www.w3.org/2000/svg">
<path d="M389 194.5C389 301.919 301.919 389 194.5 389C87.0806 389 0 301.919 0 194.5C0 87.0806 87.0806 0 194.5 0C301.919 0 389 87.0806 389 194.5ZM27.6964 194.5C27.6964 286.623 102.377 361.304 194.5 361.304C286.623 361.304 361.304 286.623 361.304 194.5C361.304 102.377 286.623 27.6964 194.5 27.6964C102.377 27.6964 27.6964 102.377 27.6964 194.5Z" fill="#EBEBEB"/>
<path d="M379 194.5C384.523 194.5 389.027 198.98 388.743 204.496C387.309 232.354 379.897 259.62 366.965 284.423C352.489 312.187 331.524 336.046 305.852 353.971C280.179 371.897 250.559 383.36 219.508 387.386C188.457 391.411 156.892 387.881 127.498 377.095C98.1032 366.309 71.7471 348.586 50.6694 325.431C29.5917 302.277 14.4156 274.376 6.43077 244.101C-1.55406 213.825 -2.11153 182.069 4.80571 151.531C10.9855 124.249 22.9678 98.6609 39.8931 76.4875C43.2441 72.0974 49.577 71.5935 53.789 75.1657L59.6588 80.1437C63.8708 83.7159 64.3631 90.0091 61.0497 94.4276C46.9878 113.18 37.0124 134.717 31.8178 157.65C25.8855 183.839 26.3636 211.073 33.2114 237.038C40.0592 263.002 53.0743 286.93 71.1506 306.787C89.2268 326.644 111.83 341.844 137.039 351.094C162.248 360.344 189.317 363.372 215.947 359.919C242.576 356.467 267.979 346.636 289.995 331.263C312.012 315.89 329.991 295.429 342.406 271.618C353.277 250.769 359.6 227.891 361.004 204.494C361.335 198.981 365.781 194.5 371.304 194.5H379Z" fill="#82A284"/>
</svg>
