<svg width="294" height="61" viewBox="0 0 294 61" fill="none" xmlns="http://www.w3.org/2000/svg">
<path d="M23 45.272C22.2747 45.5707 21.4 45.912 20.376 46.296C19.352 46.68 18.2427 46.9787 17.048 47.192C15.896 47.448 14.7227 47.576 13.528 47.576C11.9493 47.576 10.4987 47.2987 9.176 46.744C7.85333 46.1893 6.78667 45.3147 5.976 44.12C5.208 42.8827 4.824 41.2827 4.824 39.32V20.056H0.408V13.464H4.824V2.584H13.4V13.464H20.44V20.056H13.4V36.44C13.4427 37.592 13.7627 38.424 14.36 38.936C14.9573 39.448 15.704 39.704 16.6 39.704C17.496 39.704 18.3707 39.5547 19.224 39.256C20.0773 38.9573 20.76 38.7013 21.272 38.488L23 45.272ZM47.4345 20.888C44.8318 20.888 42.5065 21.4 40.4585 22.424C38.4105 23.4053 36.9385 24.8347 36.0425 26.712V47H27.4665V13.464H35.3385V20.632C36.5332 18.328 38.0478 16.5147 39.8825 15.192C41.7172 13.8693 43.6585 13.144 45.7065 13.016C46.1758 13.016 46.5385 13.016 46.7945 13.016C47.0505 13.016 47.2638 13.0373 47.4345 13.08V20.888ZM49.725 37.08C49.725 34.904 50.3223 33.0053 51.517 31.384C52.7543 29.72 54.461 28.44 56.637 27.544C58.813 26.648 61.309 26.2 64.125 26.2C65.533 26.2 66.9623 26.3067 68.413 26.52C69.8637 26.7333 71.1223 27.0747 72.189 27.544V25.752C72.189 23.6187 71.549 21.976 70.269 20.824C69.0317 19.672 67.1757 19.096 64.701 19.096C62.8663 19.096 61.117 19.416 59.453 20.056C57.789 20.696 56.0397 21.6347 54.205 22.872L51.453 17.24C53.6717 15.7893 55.933 14.7013 58.237 13.976C60.5837 13.2507 63.037 12.888 65.597 12.888C70.3757 12.888 74.0877 14.0827 76.733 16.472C79.421 18.8613 80.765 22.2747 80.765 26.712V37.4C80.765 38.296 80.9143 38.936 81.213 39.32C81.5543 39.704 82.0877 39.9387 82.813 40.024V47C82.045 47.128 81.341 47.2347 80.701 47.32C80.1037 47.4053 79.5917 47.448 79.165 47.448C77.4583 47.448 76.157 47.064 75.261 46.296C74.4077 45.528 73.8743 44.5893 73.661 43.48L73.469 41.752C72.0183 43.6293 70.205 45.08 68.029 46.104C65.853 47.128 63.6343 47.64 61.373 47.64C59.1543 47.64 57.149 47.192 55.357 46.296C53.6077 45.3573 52.221 44.0987 51.197 42.52C50.2157 40.8987 49.725 39.0853 49.725 37.08ZM70.589 38.808C71.0583 38.296 71.4423 37.784 71.741 37.272C72.0397 36.76 72.189 36.2907 72.189 35.864V32.472C71.165 32.0453 70.0557 31.7253 68.861 31.512C67.6663 31.256 66.5357 31.128 65.469 31.128C63.2503 31.128 61.4157 31.6187 59.965 32.6C58.557 33.5387 57.853 34.7973 57.853 36.376C57.853 37.2293 58.0877 38.04 58.557 38.808C59.0263 39.576 59.709 40.1947 60.605 40.664C61.501 41.1333 62.5677 41.368 63.805 41.368C65.085 41.368 66.3437 41.1333 67.581 40.664C68.8183 40.152 69.821 39.5333 70.589 38.808ZM119.947 47H111.371V28.184C111.371 25.496 110.902 23.5333 109.963 22.296C109.024 21.0587 107.723 20.44 106.059 20.44C104.907 20.44 103.734 20.7387 102.539 21.336C101.387 21.9333 100.342 22.7653 99.403 23.832C98.4643 24.856 97.7817 26.0507 97.355 27.416V47H88.779V13.464H96.523V19.672C97.3763 18.2213 98.4643 17.0053 99.787 16.024C101.11 15 102.624 14.232 104.331 13.72C106.08 13.1653 107.915 12.888 109.835 12.888C111.926 12.888 113.632 13.272 114.955 14.04C116.32 14.7653 117.344 15.768 118.027 17.048C118.752 18.2853 119.243 19.6933 119.499 21.272C119.798 22.8507 119.947 24.4507 119.947 26.072V47ZM140.076 47.64C137.943 47.64 135.98 47.192 134.188 46.296C132.396 45.3573 130.839 44.0987 129.516 42.52C128.193 40.9413 127.169 39.0853 126.444 36.952C125.761 34.8187 125.42 32.5573 125.42 30.168C125.42 27.736 125.804 25.4747 126.572 23.384C127.383 21.2933 128.492 19.4587 129.9 17.88C131.308 16.3013 132.972 15.0853 134.892 14.232C136.812 13.336 138.881 12.888 141.1 12.888C143.66 12.888 145.921 13.4853 147.884 14.68C149.847 15.832 151.447 17.368 152.684 19.288V13.464H160.172V60.632H151.596V41.112C149.036 45.464 145.196 47.64 140.076 47.64ZM143.276 40.344C144.513 40.344 145.623 40.1093 146.604 39.64C147.628 39.1707 148.545 38.5307 149.356 37.72C150.209 36.8667 150.956 35.9067 151.596 34.84V26.904C151.383 25.9653 150.977 25.0907 150.38 24.28C149.825 23.4693 149.143 22.7653 148.332 22.168C147.564 21.528 146.732 21.0373 145.836 20.696C144.94 20.3547 144.044 20.184 143.148 20.184C141.825 20.184 140.609 20.4613 139.5 21.016C138.433 21.5707 137.495 22.3387 136.684 23.32C135.873 24.2587 135.255 25.3467 134.828 26.584C134.401 27.7787 134.188 29.0587 134.188 30.424C134.188 32.2587 134.572 33.9227 135.34 35.416C136.108 36.9093 137.175 38.104 138.54 39C139.905 39.896 141.484 40.344 143.276 40.344ZM167.647 34.456V13.464H176.223V32.6C176.223 35.16 176.692 37.1013 177.631 38.424C178.569 39.704 179.956 40.344 181.791 40.344C182.9 40.344 183.988 40.1307 185.055 39.704C186.164 39.2347 187.167 38.552 188.063 37.656C189.001 36.76 189.791 35.6293 190.431 34.264V13.464H199.007V37.4C199.007 38.296 199.156 38.936 199.455 39.32C199.796 39.704 200.329 39.9387 201.055 40.024V47C200.201 47.128 199.476 47.2133 198.879 47.256C198.324 47.3413 197.812 47.384 197.343 47.384C195.807 47.384 194.548 47.0427 193.567 46.36C192.628 45.6347 192.073 44.6533 191.903 43.416L191.711 40.728C190.217 42.9893 188.297 44.7173 185.951 45.912C183.604 47.064 181.023 47.64 178.207 47.64C174.751 47.64 172.127 46.5307 170.335 44.312C168.543 42.0507 167.647 38.7653 167.647 34.456ZM207.529 47V13.464H216.105V47H207.529ZM207.529 8.792V0.279999H216.105V8.792H207.529ZM223.778 0.279999H232.354V36.248C232.354 37.784 232.61 38.8293 233.122 39.384C233.634 39.896 234.338 40.152 235.234 40.152C235.916 40.152 236.62 40.0667 237.346 39.896C238.071 39.7253 238.711 39.512 239.266 39.256L240.418 45.784C239.266 46.3387 237.922 46.7653 236.385 47.064C234.85 47.3627 233.463 47.512 232.226 47.512C229.538 47.512 227.447 46.808 225.954 45.4C224.503 43.9493 223.778 41.9013 223.778 39.256V0.279999ZM244.154 47V13.464H252.73V47H244.154ZM244.154 8.792V0.279999H252.73V8.792H244.154ZM275.955 47.64C273.224 47.64 270.771 47.192 268.595 46.296C266.419 45.3573 264.563 44.0773 263.027 42.456C261.533 40.8347 260.381 38.9787 259.571 36.888C258.76 34.7973 258.355 32.6 258.355 30.296C258.355 27.9493 258.76 25.7307 259.571 23.64C260.381 21.5493 261.533 19.6933 263.027 18.072C264.563 16.4507 266.419 15.192 268.595 14.296C270.771 13.3573 273.224 12.888 275.955 12.888C278.685 12.888 281.117 13.3573 283.251 14.296C285.427 15.192 287.283 16.4507 288.819 18.072C290.355 19.6933 291.507 21.5493 292.275 23.64C293.085 25.7307 293.491 27.9493 293.491 30.296C293.491 32.6 293.085 34.7973 292.275 36.888C291.507 38.9787 290.355 40.8347 288.819 42.456C287.325 44.0773 285.491 45.3573 283.315 46.296C281.139 47.192 278.685 47.64 275.955 47.64ZM267.187 30.296C267.187 32.2587 267.571 34.008 268.339 35.544C269.107 37.0373 270.152 38.2107 271.475 39.064C272.797 39.9173 274.291 40.344 275.955 40.344C277.576 40.344 279.048 39.9173 280.371 39.064C281.693 38.168 282.739 36.9733 283.507 35.48C284.317 33.944 284.723 32.1947 284.723 30.232C284.723 28.312 284.317 26.584 283.507 25.048C282.739 23.512 281.693 22.3173 280.371 21.464C279.048 20.6107 277.576 20.184 275.955 20.184C274.291 20.184 272.797 20.632 271.475 21.528C270.152 22.3813 269.107 23.576 268.339 25.112C267.571 26.6053 267.187 28.3333 267.187 30.296Z" fill="#82A284"/>
</svg>
